<svg width="0" height="0" class="hidden">
  <symbol xmlns="http://www.w3.org/2000/svg" viewBox="0 0 448 448" id="send">
    <path d="M.213 32L0 181.333 320 224 0 266.667.213 416 448 224z"></path>
  </symbol>
  <symbol xmlns="http://www.w3.org/2000/svg" viewBox="0 0 13.082 13.082" id="steam">
    <path d="M4.303 10.075l-1.287-.497A1.588 1.588 0 103.7 7.856l1.271.49a.928.928 0 01-.668 1.729zm4.903-3.711c1.086 0 1.969-.883 1.969-1.969s-.883-1.969-1.969-1.969a1.972 1.972 0 00-1.969 1.969c0 1.085.884 1.969 1.969 1.969zm0-3.356c.766 0 1.388.622 1.388 1.387a1.389 1.389 0 01-2.775 0c0-.765.622-1.387 1.387-1.387z"></path>
    <path d="M11.367.001H1.715C.767.001 0 .769 0 1.716v4.709l2.495.964a2.674 2.674 0 011.985-.93l1.499-2a3.21 3.21 0 115.302 2.434 3.202 3.202 0 01-2.341.765L7.198 8.971a2.682 2.682 0 01-2.674 2.849 2.681 2.681 0 01-2.68-2.682v-.015L0 8.411v2.955c0 .947.768 1.715 1.715 1.715h9.652c.947 0 1.715-.768 1.715-1.715V1.717c0-.947-.768-1.716-1.715-1.716z"></path>
  </symbol>
  <symbol xmlns="http://www.w3.org/2000/svg" viewBox="0 0 512 512" id="twitch">
    <path d="M0 68.79V452h120v60h82.21l60-60h151L512 353.21V0H68.79zM90 60h362v233.21L383.21 362h-121L181 443.21V362H90zm0 0"></path>
    <path d="M211 370.79L249.79 332h121L422 280.79V90H120v242h91zM332 165h30v92h-30zm-91 0h30v92h-30zm0 0"></path>
  </symbol>
  <symbol xmlns="http://www.w3.org/2000/svg" viewBox="0 0 24 24" id="discord">
    <path d="M3.58 21.196h14.259l-.681-2.205 1.629 1.398 1.493 1.338L23 24V2.475C22.932 1.137 21.78 0 20.352 0L3.585.003C2.158.003 1 1.142 1 2.48v16.24c0 1.411 1.156 2.476 2.58 2.476zM14.128 5.683l-.033.012.012-.012zM6.497 6.952c1.833-1.334 3.532-1.27 3.532-1.27l.137.135c-2.243.535-3.26 1.537-3.26 1.537s.272-.133.747-.336c3.021-1.188 6.32-1.102 9.374.402 0 0-1.019-.937-3.124-1.537l.186-.183c.291.001 1.831.055 3.479 1.26 0 0 1.844 3.15 1.844 7.02-.061-.074-1.144 1.666-3.931 1.726 0 0-.472-.534-.808-1 1.63-.468 2.24-1.404 2.24-1.404-.535.337-1.023.537-1.419.737-.609.268-1.219.4-1.828.535-2.884.468-4.503-.315-6.033-.936l-.523-.266s.609.936 2.174 1.404a22.262 22.262 0 00-.818 1.002c-2.786-.066-3.802-1.806-3.802-1.806 0-3.876 1.833-7.02 1.833-7.02z"></path>
    <path d="M14.308 12.771c.711 0 1.29-.6 1.29-1.34 0-.735-.576-1.335-1.29-1.335v.003c-.708 0-1.288.598-1.29 1.338 0 .734.579 1.334 1.29 1.334zm-4.618 0c.711 0 1.29-.6 1.29-1.34 0-.735-.575-1.335-1.286-1.335l-.004.003c-.711 0-1.29.598-1.29 1.338 0 .734.579 1.334 1.29 1.334z"></path>
  </symbol>
  <symbol xmlns="http://www.w3.org/2000/svg" viewBox="0 0 60.734 60.733" id="facebook">
    <path d="M57.378.001H3.352A3.352 3.352 0 000 3.353v54.026a3.353 3.353 0 003.352 3.354h29.086V37.214h-7.914v-9.167h7.914v-6.76c0-7.843 4.789-12.116 11.787-12.116 3.355 0 6.232.251 7.071.36v8.198l-4.854.002c-3.805 0-4.539 1.809-4.539 4.462v5.851h9.078l-1.187 9.166h-7.892v23.52h15.475a3.355 3.355 0 003.355-3.351V3.351a3.352 3.352 0 00-3.354-3.35z"></path>
  </symbol>
  <symbol xmlns="http://www.w3.org/2000/svg" viewBox="0 0 512 512" id="friends">
    <path d="M155.327 57.142c-51.531 0-93.454 44.45-93.454 99.086 0 54.636 41.923 99.086 93.454 99.086s93.455-44.45 93.455-99.086c0-54.636-41.923-99.086-93.455-99.086zm212.471 14.179l-.636.002c-21.626.179-41.826 9.31-56.878 25.713-14.788 16.113-22.829 37.37-22.644 59.854.186 22.484 8.577 43.605 23.628 59.473 15.17 15.991 35.265 24.773 56.651 24.773l.646-.002c21.626-.179 41.826-9.311 56.878-25.713 14.788-16.113 22.829-37.37 22.644-59.855-.385-46.594-36.34-84.245-80.289-84.245zm3.942 186.037h-7.76c-36.14 0-69.12 13.74-94.02 36.26a180.71 180.71 0 0117.78 15.61c16.58 16.58 29.6 35.9 38.7 57.42 8.2 19.38 12.88 39.8 13.97 60.83H512v-29.87c0-77.33-62.92-140.25-140.26-140.25zm-61.39 170.12c-2.83-45.59-25.94-85.69-60.43-111.39-25.09-18.7-56.21-29.77-89.92-29.77h-9.34C67.45 286.319 0 353.768 0 436.978v17.88h310.65v-17.88c0-3.19-.1-6.36-.3-9.5z"></path>
  </symbol>
  <symbol xmlns="http://www.w3.org/2000/svg" viewBox="0 0 512 512" id="google">
    <path d="M512 256c0-16.084-1.509-32.183-4.497-47.813-1.348-7.075-7.544-12.188-14.736-12.188H257c-8.291 0-15 6.709-15 15v90c0 8.291 6.709 15 15 15h120.967c-7.537 15.258-17.924 28.497-30.121 39.635l84.78 84.78C481.407 393.939 512 328.539 512 256zM256 120c29.429 0 57.422 9.346 80.947 27.041 5.947 4.468 14.341 3.926 19.614-1.392l64.014-64.014c2.974-2.974 4.57-7.061 4.38-11.265s-2.124-8.13-5.347-10.84C373.803 21.138 315.692 0 256 0 168.151 0 90.542 44.654 44.663 112.452l88.048 88.048C153.717 153.184 200.979 120 256 120zm0 392c57.263 0 109.993-19.2 152.602-51.187l-86.371-86.371C302.489 385.558 279.925 392 256 392c-55.021 0-102.283-33.184-123.289-80.5l-88.048 88.048C90.542 467.346 168.151 512 256 512zM122.184 277.605C121.035 270.526 120 263.397 120 256s1.035-14.526 2.184-21.605L28.06 140.271C10.252 175.051 0 214.316 0 256s10.252 80.949 28.061 115.728z"></path>
  </symbol>
  <symbol xmlns="http://www.w3.org/2000/svg" viewBox="0 0 56.966 56.966" id="search">
    <path d="M55.146 51.887L41.588 37.786A22.926 22.926 0 0046.984 23c0-12.682-10.318-23-23-23s-23 10.318-23 23 10.318 23 23 23c4.761 0 9.298-1.436 13.177-4.162l13.661 14.208c.571.593 1.339.92 2.162.92.779 0 1.518-.297 2.079-.837a3.004 3.004 0 00.083-4.242zM23.984 6c9.374 0 17 7.626 17 17s-7.626 17-17 17-17-7.626-17-17 7.626-17 17-17z"></path>
  </symbol>
</svg>